<mxfile host="app.diagrams.net" agent="Mozilla/5.0 (Macintosh; Intel Mac OS X 10_15_7) AppleWebKit/537.36 (KHTML, like Gecko) Chrome/137.0.0.0 Safari/537.36" version="27.1.6">
  <diagram id="C5RBs43oDa-KdzZeNtuy" name="Page-1">
    <mxGraphModel dx="1225" dy="654" grid="1" gridSize="10" guides="1" tooltips="1" connect="1" arrows="1" fold="1" page="1" pageScale="1" pageWidth="827" pageHeight="1169" math="0" shadow="0">
      <root>
        <mxCell id="WIyWlLk6GJQsqaUBKTNV-0" />
        <mxCell id="WIyWlLk6GJQsqaUBKTNV-1" parent="WIyWlLk6GJQsqaUBKTNV-0" />
        <mxCell id="Pm77CY4639vnkf3gye1O-27" value="" style="edgeStyle=orthogonalEdgeStyle;rounded=0;orthogonalLoop=1;jettySize=auto;html=1;" parent="WIyWlLk6GJQsqaUBKTNV-1" source="Pm77CY4639vnkf3gye1O-4" target="Pm77CY4639vnkf3gye1O-0" edge="1">
          <mxGeometry relative="1" as="geometry" />
        </mxCell>
        <mxCell id="Pm77CY4639vnkf3gye1O-4" value="" style="verticalLabelPosition=bottom;html=1;verticalAlign=top;align=center;strokeColor=none;fillColor=#00BEF2;shape=mxgraph.azure.script_file;pointerEvents=1;" parent="WIyWlLk6GJQsqaUBKTNV-1" vertex="1">
          <mxGeometry x="480.25" y="155" width="47.5" height="50" as="geometry" />
        </mxCell>
        <mxCell id="Pm77CY4639vnkf3gye1O-5" value="&lt;font style=&quot;font-size: 9px;&quot;&gt;Chrome&amp;nbsp;&lt;/font&gt;&lt;div&gt;&lt;font style=&quot;font-size: 9px;&quot;&gt;(background.js)&lt;/font&gt;&lt;/div&gt;" style="text;html=1;align=center;verticalAlign=middle;whiteSpace=wrap;rounded=0;" parent="WIyWlLk6GJQsqaUBKTNV-1" vertex="1">
          <mxGeometry x="474" y="205" width="60" height="30" as="geometry" />
        </mxCell>
        <mxCell id="Pm77CY4639vnkf3gye1O-6" value="" style="image;aspect=fixed;html=1;points=[];align=center;fontSize=12;image=img/lib/azure2/identity/Azure_AD_B2C.svg;" parent="WIyWlLk6GJQsqaUBKTNV-1" vertex="1">
          <mxGeometry x="749.5" y="155.28" width="59" height="54.72" as="geometry" />
        </mxCell>
        <mxCell id="Pm77CY4639vnkf3gye1O-7" value="" style="endArrow=classic;html=1;rounded=0;exitX=1.026;exitY=0.42;exitDx=0;exitDy=0;exitPerimeter=0;entryX=0.017;entryY=0.391;entryDx=0;entryDy=0;entryPerimeter=0;" parent="WIyWlLk6GJQsqaUBKTNV-1" source="Pm77CY4639vnkf3gye1O-4" target="Pm77CY4639vnkf3gye1O-6" edge="1">
          <mxGeometry width="50" height="50" relative="1" as="geometry">
            <mxPoint x="527.75" y="170" as="sourcePoint" />
            <mxPoint x="800" y="171" as="targetPoint" />
          </mxGeometry>
        </mxCell>
        <mxCell id="Pm77CY4639vnkf3gye1O-8" value="&lt;font style=&quot;font-size: 9px;&quot;&gt;Azure AD Auth Server&lt;/font&gt;" style="text;html=1;align=center;verticalAlign=middle;whiteSpace=wrap;rounded=0;" parent="WIyWlLk6GJQsqaUBKTNV-1" vertex="1">
          <mxGeometry x="729" y="130" width="100" height="30" as="geometry" />
        </mxCell>
        <mxCell id="Pm77CY4639vnkf3gye1O-9" value="" style="endArrow=classic;html=1;rounded=0;entryX=0.943;entryY=0.639;entryDx=0;entryDy=0;entryPerimeter=0;exitX=0.013;exitY=0.59;exitDx=0;exitDy=0;exitPerimeter=0;" parent="WIyWlLk6GJQsqaUBKTNV-1" source="Pm77CY4639vnkf3gye1O-6" target="Pm77CY4639vnkf3gye1O-4" edge="1">
          <mxGeometry width="50" height="50" relative="1" as="geometry">
            <mxPoint x="737" y="192" as="sourcePoint" />
            <mxPoint x="798" y="251" as="targetPoint" />
          </mxGeometry>
        </mxCell>
        <mxCell id="Pm77CY4639vnkf3gye1O-10" value="&lt;font style=&quot;font-size: 9px;&quot;&gt;OAuth 2.0 Authorization Code Flow with PKCE&lt;/font&gt;" style="text;html=1;align=center;verticalAlign=middle;whiteSpace=wrap;rounded=0;" parent="WIyWlLk6GJQsqaUBKTNV-1" vertex="1">
          <mxGeometry x="542.5" y="150" width="190" height="30" as="geometry" />
        </mxCell>
        <mxCell id="Pm77CY4639vnkf3gye1O-11" value="&lt;font style=&quot;font-size: 9px;&quot;&gt;Returns Access Token&lt;/font&gt;" style="text;html=1;align=center;verticalAlign=middle;whiteSpace=wrap;rounded=0;" parent="WIyWlLk6GJQsqaUBKTNV-1" vertex="1">
          <mxGeometry x="543" y="185" width="180" height="30" as="geometry" />
        </mxCell>
        <mxCell id="Pm77CY4639vnkf3gye1O-12" value="&lt;font style=&quot;font-size: 9px;&quot;&gt;Click &quot;Authenticate&quot;&lt;/font&gt;" style="text;html=1;align=center;verticalAlign=middle;whiteSpace=wrap;rounded=0;" parent="WIyWlLk6GJQsqaUBKTNV-1" vertex="1">
          <mxGeometry x="361.5" y="150" width="95" height="30" as="geometry" />
        </mxCell>
        <mxCell id="Pm77CY4639vnkf3gye1O-16" value="&lt;font style=&quot;font-size: 9px;&quot;&gt;Returns Access Token&lt;/font&gt;" style="text;html=1;align=center;verticalAlign=middle;whiteSpace=wrap;rounded=0;" parent="WIyWlLk6GJQsqaUBKTNV-1" vertex="1">
          <mxGeometry x="344" y="180" width="130" height="30" as="geometry" />
        </mxCell>
        <mxCell id="Pm77CY4639vnkf3gye1O-18" value="" style="group" parent="WIyWlLk6GJQsqaUBKTNV-1" vertex="1" connectable="0">
          <mxGeometry x="59" y="155" width="60" height="80" as="geometry" />
        </mxCell>
        <mxCell id="Pm77CY4639vnkf3gye1O-13" value="" style="strokeWidth=2;html=1;shape=mxgraph.flowchart.database;whiteSpace=wrap;" parent="Pm77CY4639vnkf3gye1O-18" vertex="1">
          <mxGeometry x="5" width="50" height="50" as="geometry" />
        </mxCell>
        <mxCell id="Pm77CY4639vnkf3gye1O-17" value="&lt;font style=&quot;font-size: 9px;&quot;&gt;Chrome.storage&lt;/font&gt;" style="text;html=1;align=center;verticalAlign=middle;whiteSpace=wrap;rounded=0;" parent="Pm77CY4639vnkf3gye1O-18" vertex="1">
          <mxGeometry y="50" width="60" height="30" as="geometry" />
        </mxCell>
        <mxCell id="Pm77CY4639vnkf3gye1O-22" value="&lt;font style=&quot;font-size: 9px;&quot;&gt;Retrieve/ Update Access Token&lt;/font&gt;" style="text;html=1;align=center;verticalAlign=middle;whiteSpace=wrap;rounded=0;" parent="WIyWlLk6GJQsqaUBKTNV-1" vertex="1">
          <mxGeometry x="119" y="180" width="150" height="30" as="geometry" />
        </mxCell>
        <mxCell id="Pm77CY4639vnkf3gye1O-24" value="" style="edgeStyle=orthogonalEdgeStyle;rounded=0;orthogonalLoop=1;jettySize=auto;html=1;exitX=1;exitY=0.5;exitDx=0;exitDy=0;exitPerimeter=0;" parent="WIyWlLk6GJQsqaUBKTNV-1" source="Pm77CY4639vnkf3gye1O-13" target="Pm77CY4639vnkf3gye1O-0" edge="1">
          <mxGeometry relative="1" as="geometry">
            <mxPoint x="79" y="185.03999999999996" as="sourcePoint" />
            <mxPoint x="209" y="110" as="targetPoint" />
            <Array as="points">
              <mxPoint x="114" y="180" />
            </Array>
          </mxGeometry>
        </mxCell>
        <mxCell id="Pm77CY4639vnkf3gye1O-25" value="" style="edgeStyle=orthogonalEdgeStyle;rounded=0;orthogonalLoop=1;jettySize=auto;html=1;entryX=0.991;entryY=0.618;entryDx=0;entryDy=0;entryPerimeter=0;" parent="WIyWlLk6GJQsqaUBKTNV-1" edge="1">
          <mxGeometry relative="1" as="geometry">
            <mxPoint x="269" y="186" as="sourcePoint" />
            <mxPoint x="110.81999999999984" y="185.89999999999998" as="targetPoint" />
            <Array as="points">
              <mxPoint x="269" y="186" />
            </Array>
          </mxGeometry>
        </mxCell>
        <mxCell id="Pm77CY4639vnkf3gye1O-26" value="" style="edgeStyle=orthogonalEdgeStyle;rounded=0;orthogonalLoop=1;jettySize=auto;html=1;entryX=0.016;entryY=0.358;entryDx=0;entryDy=0;entryPerimeter=0;" parent="WIyWlLk6GJQsqaUBKTNV-1" source="Pm77CY4639vnkf3gye1O-0" target="Pm77CY4639vnkf3gye1O-4" edge="1">
          <mxGeometry relative="1" as="geometry">
            <Array as="points">
              <mxPoint x="359" y="173" />
              <mxPoint x="359" y="173" />
            </Array>
          </mxGeometry>
        </mxCell>
        <mxCell id="Pm77CY4639vnkf3gye1O-29" value="&lt;font style=&quot;font-size: 9px;&quot;&gt;Returns Access Token&lt;/font&gt;" style="text;html=1;align=center;verticalAlign=middle;whiteSpace=wrap;rounded=0;" parent="WIyWlLk6GJQsqaUBKTNV-1" vertex="1">
          <mxGeometry x="119" y="155" width="150" height="30" as="geometry" />
        </mxCell>
        <mxCell id="Pm77CY4639vnkf3gye1O-1" value="&lt;font style=&quot;font-size: 9px;&quot;&gt;User&lt;/font&gt;" style="text;html=1;align=center;verticalAlign=middle;whiteSpace=wrap;rounded=0;" parent="WIyWlLk6GJQsqaUBKTNV-1" vertex="1">
          <mxGeometry x="269" y="120" width="60" height="30" as="geometry" />
        </mxCell>
        <mxCell id="Pm77CY4639vnkf3gye1O-0" value="" style="sketch=0;outlineConnect=0;fontColor=#232F3E;gradientColor=none;fillColor=#232F3D;strokeColor=none;dashed=0;verticalLabelPosition=bottom;verticalAlign=top;align=center;html=1;fontSize=12;fontStyle=0;aspect=fixed;pointerEvents=1;shape=mxgraph.aws4.user;" parent="WIyWlLk6GJQsqaUBKTNV-1" vertex="1">
          <mxGeometry x="269" y="150" width="60" height="60" as="geometry" />
        </mxCell>
        <mxCell id="Pm77CY4639vnkf3gye1O-33" value="" style="group" parent="WIyWlLk6GJQsqaUBKTNV-1" vertex="1" connectable="0">
          <mxGeometry x="192.5" y="300" width="60" height="80" as="geometry" />
        </mxCell>
        <mxCell id="Pm77CY4639vnkf3gye1O-31" value="" style="verticalLabelPosition=bottom;html=1;verticalAlign=top;align=center;strokeColor=none;fillColor=#00BEF2;shape=mxgraph.azure.script_file;pointerEvents=1;" parent="Pm77CY4639vnkf3gye1O-33" vertex="1">
          <mxGeometry x="6.25" width="47.5" height="50" as="geometry" />
        </mxCell>
        <mxCell id="Pm77CY4639vnkf3gye1O-32" value="&lt;font style=&quot;font-size: 9px;&quot;&gt;Chrome&amp;nbsp;&lt;/font&gt;&lt;div&gt;&lt;font style=&quot;font-size: 9px;&quot;&gt;(background.js)&lt;/font&gt;&lt;/div&gt;" style="text;html=1;align=center;verticalAlign=middle;whiteSpace=wrap;rounded=0;" parent="Pm77CY4639vnkf3gye1O-33" vertex="1">
          <mxGeometry y="50" width="60" height="30" as="geometry" />
        </mxCell>
        <mxCell id="Pm77CY4639vnkf3gye1O-35" style="edgeStyle=orthogonalEdgeStyle;rounded=0;orthogonalLoop=1;jettySize=auto;html=1;" parent="WIyWlLk6GJQsqaUBKTNV-1" source="Pm77CY4639vnkf3gye1O-0" edge="1">
          <mxGeometry relative="1" as="geometry">
            <Array as="points">
              <mxPoint x="299" y="260" />
              <mxPoint x="220" y="260" />
              <mxPoint x="220" y="300" />
            </Array>
            <mxPoint x="220" y="300" as="targetPoint" />
          </mxGeometry>
        </mxCell>
        <mxCell id="Pm77CY4639vnkf3gye1O-36" value="&lt;div&gt;&lt;font style=&quot;font-size: 9px;&quot;&gt;(Authenticated User)&lt;/font&gt;&lt;/div&gt;&lt;font style=&quot;font-size: 9px;&quot;&gt;Select Message,&amp;nbsp;&lt;/font&gt;&lt;span style=&quot;font-size: 9px; background-color: transparent; color: light-dark(rgb(0, 0, 0), rgb(255, 255, 255));&quot;&gt;Click &quot;Analyse&quot;&lt;/span&gt;" style="text;html=1;align=center;verticalAlign=middle;whiteSpace=wrap;rounded=0;" parent="WIyWlLk6GJQsqaUBKTNV-1" vertex="1">
          <mxGeometry x="160" y="230" width="140" height="30" as="geometry" />
        </mxCell>
        <mxCell id="Pm77CY4639vnkf3gye1O-42" value="" style="group" parent="WIyWlLk6GJQsqaUBKTNV-1" vertex="1" connectable="0">
          <mxGeometry x="167.25" y="460" width="108.5" height="80" as="geometry" />
        </mxCell>
        <mxCell id="Pm77CY4639vnkf3gye1O-34" value="" style="image;aspect=fixed;perimeter=ellipsePerimeter;html=1;align=center;shadow=0;dashed=0;spacingTop=3;image=img/lib/active_directory/database_server.svg;" parent="Pm77CY4639vnkf3gye1O-42" vertex="1">
          <mxGeometry x="33.75" width="41" height="50" as="geometry" />
        </mxCell>
        <mxCell id="Pm77CY4639vnkf3gye1O-41" value="&lt;font style=&quot;font-size: 9px;&quot;&gt;Microsoft Graph API Server&lt;/font&gt;" style="text;html=1;align=center;verticalAlign=middle;whiteSpace=wrap;rounded=0;" parent="Pm77CY4639vnkf3gye1O-42" vertex="1">
          <mxGeometry y="50" width="108.5" height="30" as="geometry" />
        </mxCell>
        <mxCell id="Pm77CY4639vnkf3gye1O-46" value="&lt;font style=&quot;font-size: 9px;&quot;&gt;Returns subject, body, sender&lt;/font&gt;" style="text;html=1;align=center;verticalAlign=middle;whiteSpace=wrap;rounded=0;" parent="WIyWlLk6GJQsqaUBKTNV-1" vertex="1">
          <mxGeometry x="232.5" y="410" width="80" height="30" as="geometry" />
        </mxCell>
        <mxCell id="AoWDdk4sjqrNplffqhR6-2" style="edgeStyle=orthogonalEdgeStyle;rounded=0;orthogonalLoop=1;jettySize=auto;html=1;exitX=-0.189;exitY=0.766;exitDx=0;exitDy=0;exitPerimeter=0;" parent="WIyWlLk6GJQsqaUBKTNV-1" source="AoWDdk4sjqrNplffqhR6-0" edge="1">
          <mxGeometry relative="1" as="geometry">
            <mxPoint x="401.5" y="310.0000000000002" as="sourcePoint" />
            <mxPoint x="472.5" y="320" as="targetPoint" />
          </mxGeometry>
        </mxCell>
        <mxCell id="AoWDdk4sjqrNplffqhR6-0" value="" style="rounded=0;whiteSpace=wrap;html=1;rotation=-180;" parent="WIyWlLk6GJQsqaUBKTNV-1" vertex="1">
          <mxGeometry x="342.5" y="270" width="10" height="215" as="geometry" />
        </mxCell>
        <mxCell id="AoWDdk4sjqrNplffqhR6-29" style="edgeStyle=orthogonalEdgeStyle;rounded=0;orthogonalLoop=1;jettySize=auto;html=1;exitX=1.013;exitY=0.592;exitDx=0;exitDy=0;exitPerimeter=0;entryX=0.005;entryY=0.582;entryDx=0;entryDy=0;entryPerimeter=0;" parent="WIyWlLk6GJQsqaUBKTNV-1" source="AoWDdk4sjqrNplffqhR6-1" target="AoWDdk4sjqrNplffqhR6-0" edge="1">
          <mxGeometry relative="1" as="geometry">
            <mxPoint x="476.5" y="379.9909950248756" as="sourcePoint" />
            <mxPoint x="352.5" y="377.49" as="targetPoint" />
            <Array as="points">
              <mxPoint x="476.5" y="360" />
            </Array>
          </mxGeometry>
        </mxCell>
        <mxCell id="AoWDdk4sjqrNplffqhR6-37" value="" style="edgeStyle=orthogonalEdgeStyle;rounded=0;orthogonalLoop=1;jettySize=auto;html=1;exitX=0.986;exitY=0.205;exitDx=0;exitDy=0;entryX=0.016;entryY=0.186;entryDx=0;entryDy=0;entryPerimeter=0;exitPerimeter=0;" parent="WIyWlLk6GJQsqaUBKTNV-1" source="AoWDdk4sjqrNplffqhR6-1" target="AoWDdk4sjqrNplffqhR6-0" edge="1">
          <mxGeometry relative="1" as="geometry">
            <Array as="points">
              <mxPoint x="456.5" y="445" />
            </Array>
          </mxGeometry>
        </mxCell>
        <mxCell id="AoWDdk4sjqrNplffqhR6-1" value="" style="rounded=0;whiteSpace=wrap;html=1;rotation=-180;" parent="WIyWlLk6GJQsqaUBKTNV-1" vertex="1">
          <mxGeometry x="476.5" y="270" width="10" height="220" as="geometry" />
        </mxCell>
        <mxCell id="AoWDdk4sjqrNplffqhR6-3" value="&lt;font style=&quot;font-size: 9px;&quot;&gt;Email Content + Classification&lt;/font&gt;" style="text;html=1;align=center;verticalAlign=middle;whiteSpace=wrap;rounded=0;" parent="WIyWlLk6GJQsqaUBKTNV-1" vertex="1">
          <mxGeometry x="600.25" y="390" width="132.25" height="20" as="geometry" />
        </mxCell>
        <mxCell id="AoWDdk4sjqrNplffqhR6-9" style="edgeStyle=orthogonalEdgeStyle;rounded=0;orthogonalLoop=1;jettySize=auto;html=1;exitX=0.332;exitY=0.984;exitDx=0;exitDy=0;exitPerimeter=0;" parent="WIyWlLk6GJQsqaUBKTNV-1" source="Pm77CY4639vnkf3gye1O-32" edge="1">
          <mxGeometry relative="1" as="geometry">
            <mxPoint x="203.4999999999999" y="380" as="sourcePoint" />
            <mxPoint x="212.5" y="460" as="targetPoint" />
            <Array as="points">
              <mxPoint x="212.5" y="420" />
              <mxPoint x="212.5" y="420" />
            </Array>
          </mxGeometry>
        </mxCell>
        <mxCell id="AoWDdk4sjqrNplffqhR6-11" style="edgeStyle=orthogonalEdgeStyle;rounded=0;orthogonalLoop=1;jettySize=auto;html=1;entryX=0.5;entryY=1;entryDx=0;entryDy=0;exitX=0.789;exitY=0.001;exitDx=0;exitDy=0;exitPerimeter=0;" parent="WIyWlLk6GJQsqaUBKTNV-1" source="Pm77CY4639vnkf3gye1O-34" edge="1">
          <mxGeometry relative="1" as="geometry">
            <mxPoint x="232.5000000000001" y="460" as="sourcePoint" />
            <mxPoint x="233.5" y="380" as="targetPoint" />
          </mxGeometry>
        </mxCell>
        <mxCell id="AoWDdk4sjqrNplffqhR6-13" value="" style="endArrow=classic;startArrow=classic;html=1;rounded=0;exitX=1;exitY=0.5;exitDx=0;exitDy=0;exitPerimeter=0;entryX=1;entryY=0.75;entryDx=0;entryDy=0;" parent="WIyWlLk6GJQsqaUBKTNV-1" source="Pm77CY4639vnkf3gye1O-31" target="AoWDdk4sjqrNplffqhR6-0" edge="1">
          <mxGeometry width="50" height="50" relative="1" as="geometry">
            <mxPoint x="362.5" y="400" as="sourcePoint" />
            <mxPoint x="412.5" y="350" as="targetPoint" />
          </mxGeometry>
        </mxCell>
        <mxCell id="AoWDdk4sjqrNplffqhR6-14" value="&lt;font style=&quot;font-size: 9px;&quot;&gt;/me/messages&lt;/font&gt;" style="text;html=1;align=center;verticalAlign=middle;whiteSpace=wrap;rounded=0;" parent="WIyWlLk6GJQsqaUBKTNV-1" vertex="1">
          <mxGeometry x="132.5" y="400" width="80" height="30" as="geometry" />
        </mxCell>
        <mxCell id="AoWDdk4sjqrNplffqhR6-15" value="&lt;font style=&quot;font-size: 9px;&quot;&gt;Persistent Connection to Native Host&lt;/font&gt;" style="text;html=1;align=center;verticalAlign=middle;whiteSpace=wrap;rounded=0;" parent="WIyWlLk6GJQsqaUBKTNV-1" vertex="1">
          <mxGeometry x="251.5" y="280" width="80" height="30" as="geometry" />
        </mxCell>
        <mxCell id="AoWDdk4sjqrNplffqhR6-16" value="&lt;font style=&quot;font-size: 9px;&quot;&gt;Native Host&lt;/font&gt;" style="text;html=1;align=center;verticalAlign=middle;whiteSpace=wrap;rounded=0;" parent="WIyWlLk6GJQsqaUBKTNV-1" vertex="1">
          <mxGeometry x="441.5" y="485" width="80" height="30" as="geometry" />
        </mxCell>
        <mxCell id="AoWDdk4sjqrNplffqhR6-17" value="&lt;font style=&quot;font-size: 9px;&quot;&gt;Background Script&lt;/font&gt;" style="text;html=1;align=center;verticalAlign=middle;whiteSpace=wrap;rounded=0;" parent="WIyWlLk6GJQsqaUBKTNV-1" vertex="1">
          <mxGeometry x="307.5" y="485" width="80" height="30" as="geometry" />
        </mxCell>
        <mxCell id="AoWDdk4sjqrNplffqhR6-18" value="&lt;font style=&quot;font-size: 9px;&quot;&gt;Send Subject, Body, Sender&lt;/font&gt;" style="text;html=1;align=center;verticalAlign=middle;whiteSpace=wrap;rounded=0;" parent="WIyWlLk6GJQsqaUBKTNV-1" vertex="1">
          <mxGeometry x="387.5" y="290" width="60" height="30" as="geometry" />
        </mxCell>
        <mxCell id="AoWDdk4sjqrNplffqhR6-19" style="edgeStyle=orthogonalEdgeStyle;rounded=0;orthogonalLoop=1;jettySize=auto;html=1;exitX=-0.189;exitY=0.766;exitDx=0;exitDy=0;exitPerimeter=0;entryX=0.5;entryY=0;entryDx=0;entryDy=0;" parent="WIyWlLk6GJQsqaUBKTNV-1" target="AoWDdk4sjqrNplffqhR6-24" edge="1">
          <mxGeometry relative="1" as="geometry">
            <mxPoint x="487.5" y="320" as="sourcePoint" />
            <mxPoint x="605.5" y="320" as="targetPoint" />
            <Array as="points">
              <mxPoint x="487.5" y="321" />
              <mxPoint x="600.5" y="321" />
              <mxPoint x="600.5" y="340" />
            </Array>
          </mxGeometry>
        </mxCell>
        <mxCell id="AoWDdk4sjqrNplffqhR6-20" value="" style="endArrow=none;dashed=1;html=1;dashPattern=1 3;strokeWidth=2;rounded=0;exitX=0.5;exitY=1;exitDx=0;exitDy=0;entryX=0.5;entryY=1;entryDx=0;entryDy=0;" parent="WIyWlLk6GJQsqaUBKTNV-1" source="AoWDdk4sjqrNplffqhR6-17" target="AoWDdk4sjqrNplffqhR6-16" edge="1">
          <mxGeometry width="50" height="50" relative="1" as="geometry">
            <mxPoint x="392.5" y="550" as="sourcePoint" />
            <mxPoint x="442.5" y="500" as="targetPoint" />
          </mxGeometry>
        </mxCell>
        <mxCell id="AoWDdk4sjqrNplffqhR6-21" value="&lt;font style=&quot;font-size: 9px; color: rgb(99, 99, 99);&quot;&gt;Communication via stdin/stdout&lt;/font&gt;" style="text;html=1;align=center;verticalAlign=middle;whiteSpace=wrap;rounded=0;" parent="WIyWlLk6GJQsqaUBKTNV-1" vertex="1">
          <mxGeometry x="379" y="485" width="77.5" height="30" as="geometry" />
        </mxCell>
        <mxCell id="AoWDdk4sjqrNplffqhR6-26" value="" style="group" parent="WIyWlLk6GJQsqaUBKTNV-1" vertex="1" connectable="0">
          <mxGeometry x="555" y="340" width="90" height="50" as="geometry" />
        </mxCell>
        <mxCell id="AoWDdk4sjqrNplffqhR6-24" value="" style="rounded=1;whiteSpace=wrap;html=1;" parent="AoWDdk4sjqrNplffqhR6-26" vertex="1">
          <mxGeometry width="90" height="50" as="geometry" />
        </mxCell>
        <mxCell id="AoWDdk4sjqrNplffqhR6-25" value="&lt;font style=&quot;font-size: 9px;&quot;&gt;Local DistilBERT Classifier&lt;/font&gt;" style="text;html=1;align=center;verticalAlign=middle;whiteSpace=wrap;rounded=0;" parent="AoWDdk4sjqrNplffqhR6-26" vertex="1">
          <mxGeometry x="21.875" y="10" width="43.75" height="20" as="geometry" />
        </mxCell>
        <mxCell id="AoWDdk4sjqrNplffqhR6-28" style="edgeStyle=orthogonalEdgeStyle;rounded=0;orthogonalLoop=1;jettySize=auto;html=1;entryX=-0.032;entryY=0.594;entryDx=0;entryDy=0;entryPerimeter=0;" parent="WIyWlLk6GJQsqaUBKTNV-1" edge="1">
          <mxGeometry relative="1" as="geometry">
            <mxPoint x="554.6800000000001" y="360.3400000000001" as="sourcePoint" />
            <mxPoint x="486.50000000000017" y="359.66" as="targetPoint" />
          </mxGeometry>
        </mxCell>
        <mxCell id="AoWDdk4sjqrNplffqhR6-30" value="&lt;font style=&quot;font-size: 9px;&quot;&gt;Return Classification&lt;/font&gt;" style="text;html=1;align=center;verticalAlign=middle;whiteSpace=wrap;rounded=0;" parent="WIyWlLk6GJQsqaUBKTNV-1" vertex="1">
          <mxGeometry x="370.5" y="330" width="91" height="30" as="geometry" />
        </mxCell>
        <mxCell id="AoWDdk4sjqrNplffqhR6-31" value="" style="group" parent="WIyWlLk6GJQsqaUBKTNV-1" vertex="1" connectable="0">
          <mxGeometry x="551.25" y="420" width="97.5" height="50" as="geometry" />
        </mxCell>
        <mxCell id="AoWDdk4sjqrNplffqhR6-32" value="" style="rounded=1;whiteSpace=wrap;html=1;" parent="AoWDdk4sjqrNplffqhR6-31" vertex="1">
          <mxGeometry width="97.5" height="50" as="geometry" />
        </mxCell>
        <mxCell id="AoWDdk4sjqrNplffqhR6-33" value="&lt;font style=&quot;font-size: 9px;&quot;&gt;Local OpenHermes LLM&lt;/font&gt;" style="text;html=1;align=center;verticalAlign=middle;whiteSpace=wrap;rounded=0;" parent="AoWDdk4sjqrNplffqhR6-31" vertex="1">
          <mxGeometry x="24.375" y="12.5" width="48.75" height="25" as="geometry" />
        </mxCell>
        <mxCell id="AoWDdk4sjqrNplffqhR6-35" value="" style="edgeStyle=orthogonalEdgeStyle;rounded=0;orthogonalLoop=1;jettySize=auto;html=1;entryX=0.5;entryY=0;entryDx=0;entryDy=0;" parent="WIyWlLk6GJQsqaUBKTNV-1" source="AoWDdk4sjqrNplffqhR6-24" target="AoWDdk4sjqrNplffqhR6-32" edge="1">
          <mxGeometry relative="1" as="geometry" />
        </mxCell>
        <mxCell id="AoWDdk4sjqrNplffqhR6-36" style="edgeStyle=orthogonalEdgeStyle;rounded=0;orthogonalLoop=1;jettySize=auto;html=1;" parent="WIyWlLk6GJQsqaUBKTNV-1" edge="1">
          <mxGeometry relative="1" as="geometry">
            <mxPoint x="551.25" y="449.9999999999999" as="sourcePoint" />
            <mxPoint x="486.5" y="445" as="targetPoint" />
            <Array as="points">
              <mxPoint x="551.5" y="445" />
            </Array>
          </mxGeometry>
        </mxCell>
        <mxCell id="AoWDdk4sjqrNplffqhR6-38" value="&lt;font style=&quot;font-size: 9px;&quot;&gt;Return Explanation for classification&lt;/font&gt;" style="text;html=1;align=center;verticalAlign=middle;whiteSpace=wrap;rounded=0;" parent="WIyWlLk6GJQsqaUBKTNV-1" vertex="1">
          <mxGeometry x="370.5" y="410" width="91" height="30" as="geometry" />
        </mxCell>
        <mxCell id="AoWDdk4sjqrNplffqhR6-39" value="&lt;font style=&quot;font-size: 9px; color: rgb(99, 99, 99);&quot;&gt;Python Script Bundled with PyInstaller&lt;/font&gt;" style="text;html=1;align=center;verticalAlign=middle;whiteSpace=wrap;rounded=0;" parent="WIyWlLk6GJQsqaUBKTNV-1" vertex="1">
          <mxGeometry x="452.75" y="520" width="57.5" height="30" as="geometry" />
        </mxCell>
      </root>
    </mxGraphModel>
  </diagram>
</mxfile>
